<svg xmlns="http://www.w3.org/2000/svg" width="27.476" height="36.695" viewBox="0 0 27.476 36.695"><defs><style>.a{fill:#fff;}</style></defs><g transform="translate(-64.382)"><path class="a" d="M241,0h2.15V5.163H241Z" transform="translate(-163.96)"/><path class="a" d="M0,0H5.163V2.15H0Z" transform="translate(82.28 5.565) rotate(-68.156)"/><path class="a" d="M0,0H5.163V2.15H0Z" transform="matrix(0.674, -0.739, 0.739, 0.674, 86.789, 8.064)"/><path class="a" d="M0,0H2.15V5.163H0Z" transform="translate(70.035 1.561) rotate(-21.844)"/><path class="a" d="M0,0H2.15V5.163H0Z" transform="matrix(0.739, -0.674, 0.674, 0.739, 64.382, 5.697)"/><path class="a" d="M120,364h19.494v2.58H120Z" transform="translate(-51.632 -337.912)"/><path class="a" d="M109.373,430H88.851A3.407,3.407,0,0,0,87,433.028v2.849h24.224v-2.849A3.407,3.407,0,0,0,109.373,430Z" transform="translate(-20.997 -399.182)"/><path class="a" d="M139.494,129.747a9.747,9.747,0,0,0-19.494,0v5.59h19.494Zm-8.672,2.889h-2.15v-2.15h2.15Zm0-3.631h-2.15v-5.829h2.15Z" transform="translate(-51.632 -111.4)"/></g></svg>