<svg xmlns="http://www.w3.org/2000/svg" width="24.182" height="24.182" viewBox="0 0 24.182 24.182"><defs><style>.a{fill:#fff;}</style></defs><path class="a" d="M97.84,90a7.84,7.84,0,1,0,7.84,7.84A7.849,7.849,0,0,0,97.84,90Zm-.708,1.417h1.417v1.417H97.132Zm-4.3,7.132H91.417V97.132h1.417Zm5.715,5.715H97.132v-1.417h1.417Zm.293-4.42-1-1-1,1-1-1,1-1-4.024-4.024,1-1,4.024,4.024,4.041-4.041,1,1L98.842,97.84l1,1Zm4-1.3V97.132h1.417v1.417Z" transform="translate(-85.749 -85.749)"/><path class="a" d="M12.091,0A12.091,12.091,0,1,0,24.182,12.091,12.091,12.091,0,0,0,12.091,0Zm0,21.348a9.257,9.257,0,1,1,9.257-9.257A9.268,9.268,0,0,1,12.091,21.348Z"/></svg>