<svg xmlns="http://www.w3.org/2000/svg" width="16" height="17.067" viewBox="0 0 16 17.067"><defs><style>.a{fill:#f5ff00;}</style></defs><g transform="translate(-16)"><g transform="translate(19.59)"><path class="a" d="M136.769,8.041a.55.55,0,0,0-.5-.323h-2.205V.551A.551.551,0,0,0,133.511,0h-2.205a.551.551,0,0,0-.551.551V7.718h-2.205a.551.551,0,0,0-.415.914l3.859,4.41a.55.55,0,0,0,.829,0l3.859-4.41A.55.55,0,0,0,136.769,8.041Z" transform="translate(-127.998)"/></g><g transform="translate(16 11.554)"><path class="a" d="M29.867,352v3.307H18.133V352H16v4.41a1.085,1.085,0,0,0,1.067,1.1H30.933A1.084,1.084,0,0,0,32,356.41V352Z" transform="translate(-16 -352)"/></g></g></svg>