<svg xmlns="http://www.w3.org/2000/svg" width="30" height="30" viewBox="0 0 30 30"><defs><style>.a{fill:#fff;}</style></defs><path class="a" d="M482,152h1.714v7.712H482Z" transform="translate(-453.714 -143.014)"/><path class="a" d="M0,152H1.714v7.712H0Z" transform="translate(0 -143.014)"/><path class="a" d="M79.956,0H63.188A3.141,3.141,0,0,0,60,3.085V4.113H83.145V3.085A3.141,3.141,0,0,0,79.956,0Z" transform="translate(-56.572)"/><path class="a" d="M317,467.428a2.142,2.142,0,1,0,4.285,0V467H317Z" transform="translate(-298.346 -439.571)"/><path class="a" d="M60,102H83.145v8.855H60Z" transform="translate(-56.572 -95.959)"/><path class="a" d="M60,295.569H83.145V287H60Zm17.831-6H79.6v1.714H77.831Zm-10.746,0h8.974v1.714H67.085Zm-3.543,0h1.771v1.714H63.543Z" transform="translate(-56.572 -269.854)"/><path class="a" d="M120,467.428a2.142,2.142,0,1,0,4.285,0V467H120Z" transform="translate(-112.939 -439.571)"/></svg>