<svg xmlns="http://www.w3.org/2000/svg" width="30" height="30" viewBox="0 0 30 30"><defs><style>.a{fill:#fff;}</style></defs><g transform="translate(0 -0.004)"><g transform="translate(0.001 16.395)"><path class="a" d="M7.678,264.533a2.555,2.555,0,0,1-2.552-2.552v-3.05l1.95,1.951a.851.851,0,0,0,1.2-1.2l-3.4-3.4a.851.851,0,0,0-1.2,0l-3.4,3.4a.85.85,0,0,0,1.2,1.2l1.95-1.951v3.05a4.258,4.258,0,0,0,4.253,4.253.851.851,0,1,0,0-1.7Z" transform="translate(-0.024 -256.028)"/></g><g transform="translate(21.494 3.406)"><path class="a" d="M360.257,69.358a.851.851,0,0,0-1.2,0l-1.951,1.95v-3.05A4.258,4.258,0,0,0,352.851,64a.851.851,0,0,0,0,1.7,2.555,2.555,0,0,1,2.552,2.552v3.05l-1.949-1.951a.85.85,0,0,0-1.2,1.2l3.4,3.4a.842.842,0,0,0,.6.25.854.854,0,0,0,.6-.248l3.4-3.4A.851.851,0,0,0,360.257,69.358Z" transform="translate(-352 -64.004)"/></g><g transform="translate(12.988 18.095)"><path class="a" d="M208.161,288H192.851a.851.851,0,0,0-.851.851v10.207a.851.851,0,0,0,.851.851h15.311a.851.851,0,0,0,.851-.851V288.855A.851.851,0,0,0,208.161,288Zm-4.166,10.207h-6.978A4.262,4.262,0,0,0,193.7,294.9v-1.873a4.266,4.266,0,0,0,3.316-3.317h6.977a4.262,4.262,0,0,0,3.316,3.316V294.9h0A4.262,4.262,0,0,0,203.995,298.211Z" transform="translate(-192 -288.004)"/></g><g transform="translate(18.594 21.865)"><g transform="translate(0 0)"><ellipse class="a" cx="2" cy="1.5" rx="2" ry="1.5"/></g></g><g transform="translate(0 0.004)"><path class="a" d="M16.161,0H.851A.851.851,0,0,0,0,.855V11.062a.851.851,0,0,0,.851.851H16.161a.851.851,0,0,0,.851-.851V.855A.851.851,0,0,0,16.161,0Zm-.851,6.89a4.266,4.266,0,0,0-3.316,3.317H5.017A4.262,4.262,0,0,0,1.7,6.9V5.021A4.262,4.262,0,0,0,5.017,1.705h6.977a4.266,4.266,0,0,0,3.317,3.316Z" transform="translate(0 -0.004)"/></g><g transform="translate(7.397 5.143)"><g transform="translate(0 0)"><ellipse class="a" cx="2" cy="1.5" rx="2" ry="1.5"/></g></g></g></svg>