<svg xmlns="http://www.w3.org/2000/svg" width="57.777" height="61.75" viewBox="0 0 57.777 61.75"><defs><style>.a{fill:#fff;}</style></defs><g transform="translate(-14.725)"><g transform="translate(14.725 18.12)"><path class="a" d="M27.486,134.325a12.761,12.761,0,1,0,12.775,12.761A12.761,12.761,0,0,0,27.486,134.325Zm-.013,11.412a4.433,4.433,0,0,1,4.438,4.438,4.351,4.351,0,0,1-3.143,4.236v.4a1.356,1.356,0,0,1-1.349,1.362,1.341,1.341,0,0,1-1.349-1.335V154.4a4.484,4.484,0,0,1-3.035-4.209,1.349,1.349,0,1,1,2.7,0,1.74,1.74,0,1,0,1.754-1.754A4.432,4.432,0,0,1,26.07,139.8v-.445a1.349,1.349,0,0,1,2.7,0v.4A4.339,4.339,0,0,1,31.911,144a1.349,1.349,0,1,1-2.7,0,1.74,1.74,0,1,0-1.74,1.74Z" transform="translate(-14.725 -134.325)"/></g><g transform="translate(46.979 18.134)"><path class="a" d="M266.573,134.425a12.755,12.755,0,1,0,12.775,12.748A12.746,12.746,0,0,0,266.573,134.425Zm5.9,6.34-3.561,5.059h1.255a1.349,1.349,0,1,1,0,2.7H268v.809h2.158a1.349,1.349,0,1,1,0,2.7H268v1.484a1.349,1.349,0,1,1-2.7,0v-1.484h-2.887a1.349,1.349,0,1,1,0-2.7h2.873v-.809H262.4a1.349,1.349,0,1,1,0-2.7h1.862l-3.575-5.059a1.346,1.346,0,0,1,2.2-1.551l3.7,5.207,3.683-5.207a1.346,1.346,0,0,1,2.2,1.551Z" transform="translate(-253.825 -134.425)"/></g><g transform="translate(24.195 0)"><path class="a" d="M120.577,5.737,115.195.395a1.343,1.343,0,0,0-1.9,0,1.376,1.376,0,0,0,0,1.929l3.049,3.062H92.33a7.4,7.4,0,0,0-7.406,7.379,1.31,1.31,0,0,0,1.336,1.322,1.339,1.339,0,0,0,1.362-1.309v-.013a4.678,4.678,0,0,1,4.694-4.681h24.026l-3.049,3.022a1.345,1.345,0,1,0,1.9,1.9l.013-.013,5.369-5.342A1.36,1.36,0,0,0,120.577,5.737Z" transform="translate(-84.923 0)"/></g><g transform="translate(26.984 47.676)"><path class="a" d="M140.313,353.424a1.339,1.339,0,0,0-1.362,1.309v.013a4.678,4.678,0,0,1-4.694,4.681H110.217l3.049-3.022a1.339,1.339,0,0,0,.013-1.889l-.013-.013a1.343,1.343,0,0,0-1.9,0l-5.369,5.342a1.36,1.36,0,0,0,0,1.916l5.369,5.342a1.343,1.343,0,0,0,1.9,0,1.376,1.376,0,0,0,0-1.929l-3.049-3.049h24.026a7.4,7.4,0,0,0,7.406-7.379A1.336,1.336,0,0,0,140.313,353.424Z" transform="translate(-105.6 -353.423)"/></g></g></svg>