<svg xmlns="http://www.w3.org/2000/svg" width="19.11" height="19.11" viewBox="0 0 19.11 19.11"><g transform="translate(0 -0.002)"><path d="M.666,5.778a.666.666,0,0,0,.666-.666V2.274L5.618,6.56a.666.666,0,0,0,.941-.941L2.272,1.333H5.11A.666.666,0,1,0,5.11,0H.666A.666.666,0,0,0,0,.668V5.112A.665.665,0,0,0,.666,5.778Z" transform="translate(0 0)"/><path d="M143.975,138.862a.666.666,0,0,0-.666.666v2.838l-4.419-4.419a.666.666,0,1,0-.941.941l4.418,4.418H139.53a.666.666,0,1,0,0,1.331h4.445a.665.665,0,0,0,.666-.666v-4.444A.666.666,0,0,0,143.975,138.862Z" transform="translate(-125.53 -125.526)"/><path d="M5.754,137.947l-4.418,4.418v-2.838a.666.666,0,1,0-1.331,0v4.445a.665.665,0,0,0,.666.666H5.115a.666.666,0,1,0,0-1.331H2.277L6.7,138.888a.666.666,0,1,0-.941-.941Z" transform="translate(-0.005 -125.526)"/><path d="M145.336,0h-4.445a.666.666,0,1,0,0,1.331h2.838l-4.286,4.286a.666.666,0,0,0,.941.941l4.286-4.286V5.112a.666.666,0,0,0,1.331,0V.668A.666.666,0,0,0,145.336,0Z" transform="translate(-126.892 0)"/></g></svg>