<svg xmlns="http://www.w3.org/2000/svg" width="30" height="30.824" viewBox="0 0 30 30.824"><defs><style>.a{fill:#fff;}</style></defs><g transform="translate(-5)"><g transform="translate(8.465 25.017)"><g transform="translate(0 0)"><rect class="a" width="3" height="2"/></g></g><g transform="translate(28.076 7.198)"><path class="a" d="M272.871,82h-4.2l-.77,7.123h5.744Z" transform="translate(-267.897 -82)"/></g><g transform="translate(28.964 2.945)"><path class="a" d="M284.664,43h-3.632l-.168,1.575h3.967Z" transform="translate(-280.864 -43)"/></g><g transform="translate(19 25.017)"><g transform="translate(0 0)"><rect class="a" width="2" height="2"/></g></g><g transform="translate(29.25)"><path class="a" d="M288.239,0h-3l-.2,1.849h3.4Z" transform="translate(-285.041)"/></g><g transform="translate(5 16.375)"><g transform="translate(0)"><path class="a" d="M24.339,165.691a.6.6,0,0,1-.63-.565v-2.1l-6.138,2.533a.8.8,0,0,1-.649-.025.522.522,0,0,1-.3-.466v-1.995L11.128,165.6a.825.825,0,0,1-.676-.006.557.557,0,0,1-.343-.473v-2.056L5,165.447V177.47H35v-11.78ZM13.9,174.936a.611.611,0,0,1-.659.548H8.3a.611.611,0,0,1-.659-.548v-3.561a.611.611,0,0,1,.659-.548h4.945a.611.611,0,0,1,.659.548Zm-.65-5.342H8.282a.557.557,0,1,1,0-1.1h4.969a.557.557,0,1,1,0,1.1Zm9.881,5.342a.611.611,0,0,1-.659.548H17.527a.611.611,0,0,1-.659-.548v-3.561a.611.611,0,0,1,.659-.548h4.945a.611.611,0,0,1,.659.548Zm-.647-5.342H17.516a.557.557,0,1,1,0-1.1h4.969a.557.557,0,1,1,0,1.1Zm9.878,5.342a.611.611,0,0,1-.659.548H26.758a.611.611,0,0,1-.659-.548v-3.561a.611.611,0,0,1,.659-.548H31.7a.611.611,0,0,1,.659.548Zm-.608-5.342H26.786a.557.557,0,1,1,0-1.1h4.969a.557.557,0,1,1,0,1.1Z" transform="translate(-5 -163.021)"/></g></g><g transform="translate(28.535 25.017)"><g transform="translate(0 0)"><rect class="a" width="3" height="2"/></g></g></g></svg>