<svg xmlns="http://www.w3.org/2000/svg" width="21.989" height="19.224" viewBox="0 0 21.989 19.224"><defs><style>.a{fill:#ff00d8;}</style></defs><g transform="translate(0 -29.755)"><g transform="translate(0 29.755)"><g transform="translate(0 0)"><rect class="a" width="7.48" height="4.692" transform="translate(3.933 2.545)"/><path class="a" d="M290.2,41.942s0,.01,0,.014v1.285a2.369,2.369,0,1,0,4.739,0V35.894a2.934,2.934,0,0,0-.777-2l-3.634-4.142-.559.49,2.933,3.344a1.775,1.775,0,0,0,.124,3.546,1.8,1.8,0,0,0,1.17-.44v6.547a1.626,1.626,0,0,1-3.252,0V41.957a2.075,2.075,0,0,0-2.066-2.084h-1.233v.743h1.22A1.331,1.331,0,0,1,290.2,41.942Zm3.856-6.582a1.032,1.032,0,1,1-1.032-1.032,1.033,1.033,0,0,1,1.032,1.032Z" transform="translate(-274.279 -29.755)"/><path class="a" d="M21.617,53.743H12.992V36.623a1.086,1.086,0,0,0-1.076-1.092H3.282a1.08,1.08,0,0,0-1.069,1.092v17.12H.372a.372.372,0,0,0,0,.743H21.617a.372.372,0,0,0,0-.743ZM12.156,42.872a.372.372,0,0,1-.372.372H3.561a.372.372,0,0,1-.372-.372V37.436a.372.372,0,0,1,.372-.372h8.223a.372.372,0,0,1,.372.372Z" transform="translate(0 -35.263)"/></g></g></g></svg>