<svg xmlns="http://www.w3.org/2000/svg" width="25.129" height="25.129" viewBox="0 0 25.129 25.129"><defs><style>.a{fill:#fff;}</style></defs><g transform="translate(0 0.001)"><path class="a" d="M390.736,84.7h.491v.491a.736.736,0,1,0,1.472,0V84.7h.491a.736.736,0,1,0,0-1.472H392.7v-.491a.736.736,0,0,0-1.472,0v.491h-.491a.736.736,0,1,0,0,1.472Z" transform="translate(-370.859 -77.976)"/><path class="a" d="M40.736,22.7h.491v.491a.736.736,0,1,0,1.472,0V22.7h.491a.736.736,0,0,0,0-1.472H42.7v-.491a.736.736,0,1,0-1.472,0v.491h-.491a.736.736,0,0,0,0,1.472Z" transform="translate(-38.037 -19.019)"/><path class="a" d="M14.282,245.534l-.115,0a5.153,5.153,0,0,0-10.026,1.178,4.27,4.27,0,0,0,.129,8.538H14.282a4.859,4.859,0,1,0,0-9.718Z" transform="translate(0 -230.123)"/><path class="a" d="M415.19,403.227H414.7v-.491a.736.736,0,0,0-1.472,0v.491h-.491a.736.736,0,1,0,0,1.472h.491v.491a.736.736,0,0,0,1.472,0V404.7h.491a.736.736,0,0,0,0-1.472Z" transform="translate(-391.779 -382.27)"/><path class="a" d="M173.086,12.416a.736.736,0,0,0-.766-.251,7.731,7.731,0,0,1-9.776-7.483,7.664,7.664,0,0,1,.891-3.6.736.736,0,0,0-.843-1.054,9.233,9.233,0,0,0-6.684,10.548A6.627,6.627,0,0,1,163.287,14a6.35,6.35,0,0,1,4.856,3.6,9.175,9.175,0,0,0,1.85-.918,9.286,9.286,0,0,0,3.169-3.467A.736.736,0,0,0,173.086,12.416Z" transform="translate(-148.118)"/></g></svg>