<svg xmlns="http://www.w3.org/2000/svg" width="20.026" height="20.031" viewBox="0 0 20.026 20.031"><defs><style>.a{fill:#f5f5f5;}</style></defs><g transform="translate(-0.054)"><path class="a" d="M103.852,4.147A4.146,4.146,0,0,0,99.745,0,3.206,3.206,0,0,0,97.4,1.057,3.206,3.206,0,0,0,95.05,0a4.146,4.146,0,0,0-4.108,4.147c0,2.278,1.672,3.454,3.608,4.816a29.577,29.577,0,0,1,2.463,1.871l.384.334.385-.333c.948-.821,1.85-1.463,2.646-2.03,1.914-1.362,3.425-2.438,3.425-4.657ZM99.158,5.907H97.984V7.081H96.81V5.907H95.637V4.734H96.81V3.56h1.174V4.734h1.174Z" transform="translate(-87.333)"/><path class="a" d="M279.665,137.2c-1.2,0-1.506,5.563-1.53,5.681a4.562,4.562,0,0,1-1.663,2.748l-2.542,1.846-.7-.94,2.542-1.845c1.007-.755,1.466-2.044.207-2.044-1.127,0-3.234,1.3-3.858,1.822a3.253,3.253,0,0,0-1.177,2.505v4.89h3.521a3,3,0,0,1,.775-1.764,16.688,16.688,0,0,1,1.925-1.972c1.385-1.3,2.821-2.641,3.009-4a35.473,35.473,0,0,0,.2-3.881C280.364,138.677,280.232,137.25,279.665,137.2Z" transform="translate(-260.29 -131.831)"/><path class="a" d="M8.163,144.358a7.933,7.933,0,0,0-3.721-1.714c-1.258,0-.8,1.289.207,2.044l2.542,1.845-.7.94-2.542-1.846a4.562,4.562,0,0,1-1.663-2.748c-.024-.117-.333-5.681-1.53-5.681-.657.059-.728,1.972-.692,3.8.024,1.338.129,2.641.188,3.122.188,1.361,1.624,2.7,3.009,4A16.686,16.686,0,0,1,5.182,150.1a3,3,0,0,1,.775,1.764H9.478V147A3.3,3.3,0,0,0,8.163,144.358Z" transform="translate(0 -131.831)"/></g></svg>