<svg xmlns="http://www.w3.org/2000/svg" width="21.005" height="16" viewBox="0 0 21.005 16"><defs><style>.a{fill:#f5f5f5;}</style></defs><g transform="translate(0 -61)"><g transform="translate(0 74.538)"><path class="a" d="M19.774,391H1.231a1.231,1.231,0,0,0,0,2.462H19.774a1.231,1.231,0,0,0,0-2.462Z" transform="translate(0 -391)"/></g><g transform="translate(1.272 61)"><path class="a" d="M45.769,64.09v2.449a.615.615,0,1,1-1.231,0V63.3a9.176,9.176,0,0,0-1.231-.533v5a.615.615,0,1,1-1.231,0V61.615A.616.616,0,0,0,41.462,61H39a.616.616,0,0,0-.615.615v6.154a.615.615,0,1,1-1.231,0v-5a9.176,9.176,0,0,0-1.231.533v3.238a.615.615,0,1,1-1.231,0V64.09A9.206,9.206,0,0,0,31,71.462v1.846H49.462V71.462A9.206,9.206,0,0,0,45.769,64.09Z" transform="translate(-31 -61)"/></g></g></svg>