<svg xmlns="http://www.w3.org/2000/svg" width="30.002" height="30.409" viewBox="0 0 30.002 30.409"><defs><style>.a{fill:#fff;}</style></defs><g transform="translate(-3.423)"><g transform="translate(12.112)"><path class="a" d="M167.282,1.878V0H153.532V1.888h-3.813V13.24a7.163,7.163,0,0,1,3.749,6.292c0,1.612-1.058,4.244-3.233,8.045q-.259.453-.516.887v1.713h9.813v-5.75h1.875v5.75h9.625V1.891Zm-9.625,20.532h-1.875V20.535h1.875Zm0-3.75h-1.875V16.785h1.875Zm0-3.664h-1.875V13.121h1.875Zm3.75,7.414h-1.875V20.535h1.875Zm0-3.75h-1.875V16.785h1.875Zm0-3.664h-1.875V13.121h1.875Zm1.875-4.375h-1.875V8.433h-1.875v2.188h-1.875V4.371h1.875V6.558h1.875V4.371h1.875Zm1.875,11.789h-1.875V20.535h1.875Zm0-3.75h-1.875V16.785h1.875Zm0-3.664h-1.875V13.121h1.875Z" transform="translate(-149.719)"/></g><g transform="translate(3.423 14.25)"><g transform="translate(0)"><path class="a" d="M8.7,239.937a5.288,5.288,0,0,0-5.282,5.282c0,.708.387,2.572,2.98,7.1.851,1.487,1.709,2.854,2.3,3.773.593-.919,1.451-2.287,2.3-3.773,2.593-4.532,2.98-6.4,2.98-7.1A5.288,5.288,0,0,0,8.7,239.937Zm0,8.763a3.482,3.482,0,1,1,3.482-3.482A3.486,3.486,0,0,1,8.7,248.7Z" transform="translate(-3.423 -239.937)"/></g></g><g transform="translate(7.098 17.925)"><g transform="translate(0)"><path class="a" d="M66.907,301.813a1.607,1.607,0,1,0,1.607,1.607A1.608,1.608,0,0,0,66.907,301.813Z" transform="translate(-65.3 -301.813)"/></g></g></g></svg>