<svg xmlns="http://www.w3.org/2000/svg" width="31.938" height="29.277" viewBox="0 0 31.938 29.277"><defs><style>.a{fill:#fff;}</style></defs><g transform="translate(-0.001 -2)"><g transform="translate(0.001 5.992)"><g transform="translate(0 5.233)"><path class="a" d="M8.317,23A4.983,4.983,0,0,1,3.6,19.6l-.047-.153a4.855,4.855,0,0,1-.23-1.443V8.932L.1,19.709a3.022,3.022,0,0,0,2.119,3.666l20.578,5.511a3.052,3.052,0,0,0,.767.1,2.967,2.967,0,0,0,2.876-2.176L27.636,23Z" transform="translate(-0.001 -8.932)"/></g><path class="a" d="M9.662,10.323A2.662,2.662,0,1,0,7,7.662,2.664,2.664,0,0,0,9.662,10.323Z" transform="translate(2.315 -5)"/></g><path class="a" d="M27.289,2H7.327A3.332,3.332,0,0,0,4,5.327V19.966a3.332,3.332,0,0,0,3.327,3.327H27.289a3.332,3.332,0,0,0,3.327-3.327V5.327A3.332,3.332,0,0,0,27.289,2ZM7.327,4.662H27.289a.666.666,0,0,1,.665.665v9.447l-4.2-4.905a2.384,2.384,0,0,0-1.785-.818,2.327,2.327,0,0,0-1.778.84l-4.943,5.933-1.61-1.606a2.336,2.336,0,0,0-3.3,0L6.662,17.888V5.327a.666.666,0,0,1,.665-.665Z" transform="translate(1.323)"/></g></svg>