<svg xmlns="http://www.w3.org/2000/svg" width="599.158" height="369.081" viewBox="0 0 599.158 369.081"><defs><style>.a{opacity:0.1;}.b{fill:#fff;}</style></defs><g class="a" transform="translate(0 -82.782)"><path class="b" d="M370.654,304.812H360.08V283.631c0-58.35-70.154-102.4-98.165-117.66a10.817,10.817,0,0,0-1.832-5.563,16.439,16.439,0,0,0,0-27.928,10.825,10.825,0,0,0-3.359-15.346l-4.1-32.527a2.084,2.084,0,0,0-4.136,0l-4.1,32.527a10.92,10.92,0,0,0-5.228,9.294,10.809,10.809,0,0,0,1.868,6.052,16.441,16.441,0,0,0,0,27.928,10.815,10.815,0,0,0-1.83,5.563c-28.011,15.262-98.165,59.31-98.165,117.66v21.181H130.461a4.655,4.655,0,0,0-4.655,4.655v45.382a4.656,4.656,0,0,0,4.655,4.655h5.289V451.67h41.67v-4.19c0-42.32,73.136-70.054,73.136-70.054S323.7,405.159,323.7,447.48v4.19h41.669V359.5h5.288a4.656,4.656,0,0,0,4.655-4.655V309.467A4.655,4.655,0,0,0,370.654,304.812ZM173.489,344.726H160.048V329.546c0-6.014,3.735-9.955,6.72-9.955s6.72,3.941,6.72,9.955Zm41.894,0H201.943V329.546c0-6.014,3.733-9.955,6.719-9.955s6.72,3.941,6.72,9.955Zm41.892,0H243.839V329.546c0-6.014,3.731-9.955,6.719-9.955s6.718,3.941,6.718,9.955Zm41.894,0H285.731V329.546c0-6.014,3.733-9.955,6.719-9.955s6.719,3.941,6.719,9.955Zm41.9,0H327.623V329.546c0-6.014,3.735-9.955,6.72-9.955s6.722,3.941,6.722,9.955Z" transform="translate(49.02)"/><path class="b" d="M475.925,318.785h-7.248v-14.52c0-39.54-46.988-69.5-66.62-80.29a.338.338,0,0,0,0-.036,8.034,8.034,0,0,0-1.049-3.959,11.909,11.909,0,0,0,0-19.526,8.039,8.039,0,0,0,1.051-3.959,8.13,8.13,0,0,0-3.626-6.756l-2.774-22a2.084,2.084,0,0,0-4.136,0l-2.77,22a8.071,8.071,0,0,0-2.579,10.714,11.906,11.906,0,0,0,0,19.527,8.053,8.053,0,0,0-1.046,3.959c0,.013,0,.024,0,.036-19.629,10.791-66.618,40.75-66.618,80.291v14.52h-7.253a3.191,3.191,0,0,0-3.192,3.191V353.09a3.191,3.191,0,0,0,3.192,3.191h3.624v63.189h28.57V416.6c0-29.014,50.139-48.026,50.139-48.026s50.143,19.013,50.143,48.026v2.874H472.3V356.28h3.624a3.191,3.191,0,0,0,3.192-3.191V321.976A3.2,3.2,0,0,0,475.925,318.785ZM340.754,346.15h-9.213V335.74c0-4.123,2.56-6.822,4.608-6.822s4.605,2.7,4.605,6.822Zm28.723,0h-9.213V335.74c0-4.123,2.561-6.822,4.607-6.822s4.607,2.7,4.607,6.822Zm28.721,0h-9.212V335.74c0-4.123,2.557-6.822,4.605-6.822s4.607,2.7,4.607,6.822Zm28.718,0H417.7V335.74c0-4.123,2.558-6.822,4.608-6.822s4.6,2.7,4.6,6.822Zm28.723,0h-9.213V335.74c0-4.123,2.561-6.822,4.607-6.822s4.607,2.7,4.607,6.822Z" transform="translate(120.038 32.392)"/><path class="b" d="M167.86,318.785h-7.254v-14.52c0-39.542-46.991-69.5-66.618-80.291,0-.013,0-.024,0-.035a8.056,8.056,0,0,0-1.045-3.959,11.906,11.906,0,0,0,0-19.527,8.041,8.041,0,0,0,1.046-3.958,8.125,8.125,0,0,0-3.626-6.756l-2.771-22a2.084,2.084,0,0,0-4.136,0l-2.775,22a8.132,8.132,0,0,0-3.627,6.756,8.047,8.047,0,0,0,1.051,3.959,11.909,11.909,0,0,0,0,19.526,8.038,8.038,0,0,0-1.049,3.959c0,.012,0,.025,0,.037-19.632,10.792-66.618,40.75-66.618,80.288v14.52H3.191A3.191,3.191,0,0,0,0,321.977v31.114a3.191,3.191,0,0,0,3.191,3.191H6.815V419.47H35.386V416.6c0-29.014,50.137-48.026,50.137-48.026s50.141,19.013,50.141,48.026v2.874h28.568V356.281h3.626a3.191,3.191,0,0,0,3.191-3.191V321.977A3.187,3.187,0,0,0,167.86,318.785ZM32.69,346.15H23.478V335.74c0-4.123,2.557-6.822,4.6-6.822s4.608,2.7,4.608,6.822Zm28.72,0H52.2V335.74c0-4.123,2.558-6.822,4.6-6.822s4.607,2.7,4.607,6.822Zm28.72,0H80.916V335.74c0-4.123,2.561-6.822,4.608-6.822s4.605,2.7,4.605,6.822v10.41Zm28.725,0h-9.216V335.74c0-4.123,2.56-6.822,4.607-6.822s4.609,2.7,4.609,6.822Zm28.72,0h-9.213V335.74c0-4.123,2.558-6.822,4.6-6.822s4.609,2.7,4.609,6.822Z" transform="translate(0 32.393)"/></g></svg>