<svg xmlns="http://www.w3.org/2000/svg" width="30" height="25.901" viewBox="0 0 30 25.901"><defs><style>.a{fill:#fff;}</style></defs><g transform="translate(0 -34.974)"><path class="a" d="M170.541,38.178a.8.8,0,0,0,.8-.8V35.772a.8.8,0,1,0-1.6,0V37.38A.8.8,0,0,0,170.541,38.178Z" transform="translate(-159.74)"/><path class="a" d="M2.59,133.881l-1.392-.8a.8.8,0,1,0-.8,1.383l1.392.8a.8.8,0,0,0,.8-1.383Z" transform="translate(0 -92.194)"/><path class="a" d="M1.8,313.975l-1.392.8a.8.8,0,0,0,.4,1.49c.362,0,.453-.175,1.791-.911a.8.8,0,0,0-.8-1.383Z" transform="translate(-0.011 -262.382)"/><path class="a" d="M314.52,135.264l1.392-.8a.8.8,0,1,0-.8-1.383l-1.392.8a.8.8,0,0,0,.8,1.383Z" transform="translate(-294.756 -92.194)"/><path class="a" d="M69.516,134.381a7.582,7.582,0,0,1,6.473-6.161,6.384,6.384,0,1,0-9.526,8.5A6.11,6.11,0,0,1,69.516,134.381Z" transform="translate(-61.297 -85.256)"/><path class="a" d="M122.633,200.714a5.988,5.988,0,0,0-11.538,2.185,4.5,4.5,0,0,0,.509,8.976c12.561-.013,11.874.032,12.093-.036a5.589,5.589,0,0,0-1.063-11.125Z" transform="translate(-98.652 -151.003)"/></g></svg>