<svg xmlns="http://www.w3.org/2000/svg" width="27.058" height="33.911" viewBox="0 0 27.058 33.911"><defs><style>.a{fill:#fff;}</style></defs><g transform="translate(-39.812)"><g transform="translate(39.812)"><path class="a" d="M57.851,0a9.027,9.027,0,0,0-8.715,6.733c-.1,0-.2-.015-.3-.015a9.03,9.03,0,0,0-9.019,9.02c0,4.617,7.364,16.355,8.2,17.5l.308.421a.629.629,0,0,0,1.013,0l.31-.422a90.084,90.084,0,0,0,4.9-8.364,53.879,53.879,0,0,0,2.49,4.822l.309.42a.627.627,0,0,0,1.012,0l.31-.421c.839-1.142,8.2-16.055,8.2-20.673A9.029,9.029,0,0,0,57.851,0ZM48.831,18.568a2.062,2.062,0,1,1,1.57-3.383c.157.429.32.864.491,1.306,0,0,0,.01,0,.014A2.065,2.065,0,0,1,48.831,18.568Zm9.019-5.078c-.1,0-.2-.007-.3-.015a3.672,3.672,0,1,1,.3.015Z" transform="translate(-39.812)"/></g></g></svg>