<svg xmlns="http://www.w3.org/2000/svg" width="29.837" height="29.992" viewBox="0 0 29.837 29.992"><defs><style>.a{fill:#fff;}</style></defs><g transform="translate(-0.001 0.001)"><path class="a" d="M315.269,6.04a6.033,6.033,0,0,1-2.758,5.07,1.852,1.852,0,0,0-.606.639l-1.86,3.287-.308.544a.194.194,0,0,1-.015.025.582.582,0,0,1-1-.025l-2.169-3.831a1.845,1.845,0,0,0-.6-.639,6.039,6.039,0,1,1,9.318-5.071Zm0,0" transform="translate(-285.43 0)"/><path class="a" d="M341.438,6.975a6.033,6.033,0,0,1-2.758,5.07,1.852,1.852,0,0,0-.606.639l-1.86,3.287-1.861-3.287a1.847,1.847,0,0,0-.6-.639,5.715,5.715,0,1,1,7.69-5.071Zm0,0" transform="translate(-311.599 -0.935)"/><path class="a" d="M346.112,38.982a4.015,4.015,0,1,1-3.573-3.99q.118.013.233.033A4.015,4.015,0,0,1,346.112,38.982Zm0,0" transform="translate(-318.277 -32.92)"/><path class="a" d="M367.8,39.9a3.388,3.388,0,1,1-3.34-3.957A4.016,4.016,0,0,1,367.8,39.9Zm0,0" transform="translate(-339.97 -33.841)"/><path class="a" d="M15.479,62.883a7.732,7.732,0,0,1-3.535,6.5,2.376,2.376,0,0,0-.777.82L8.784,74.414l-.4.7a.287.287,0,0,1-.019.031.745.745,0,0,1-1.278-.031L4.312,70.2a2.361,2.361,0,0,0-.775-.818,7.74,7.74,0,1,1,11.942-6.5Zm0,0" transform="translate(0 -51.915)"/><path class="a" d="M49.017,64.024a7.732,7.732,0,0,1-3.535,6.5,2.376,2.376,0,0,0-.777.82l-2.384,4.212-2.385-4.212a2.362,2.362,0,0,0-.775-.818,7.739,7.739,0,0,1,3.162-14.167A7.74,7.74,0,0,1,49.017,64.024Zm0,0" transform="translate(-33.538 -53.055)"/><path class="a" d="M45.991,95.269a5.714,5.714,0,1,1-5.085-5.679q.167.018.332.046A5.715,5.715,0,0,1,45.991,95.269Zm0,0" transform="translate(-32.537 -84.31)"/><path class="a" d="M76.867,96.574a5.716,5.716,0,0,1-4.754,5.634,5.715,5.715,0,0,1,0-11.267A5.715,5.715,0,0,1,76.867,96.574Zm0,0" transform="translate(-63.412 -85.615)"/><path class="a" d="M249.984,287.01a5.123,5.123,0,0,1-2.342,4.306,1.573,1.573,0,0,0-.514.543l-1.58,2.791-.262.462a.176.176,0,0,1-.013.021.494.494,0,0,1-.847-.021l-1.842-3.253a1.566,1.566,0,0,0-.513-.542,5.128,5.128,0,1,1,7.913-4.306Zm0,0" transform="translate(-225.685 -265.372)"/><path class="a" d="M272.207,287.764a5.123,5.123,0,0,1-2.342,4.306,1.573,1.573,0,0,0-.514.543l-1.58,2.791-1.58-2.791a1.566,1.566,0,0,0-.513-.542,4.853,4.853,0,1,1,6.53-4.306Zm0,0" transform="translate(-247.907 -266.126)"/><path class="a" d="M280.216,318.645a3.141,3.141,0,1,1-2.8-3.122q.092.01.182.026A3.141,3.141,0,0,1,280.216,318.645Zm0,0" transform="translate(-257.886 -297.023)"/><path class="a" d="M297.187,319.366a2.651,2.651,0,1,1-2.613-3.1A3.142,3.142,0,0,1,297.187,319.366Zm0,0" transform="translate(-274.857 -297.744)"/></g></svg>