<svg xmlns="http://www.w3.org/2000/svg" width="20.104" height="20.104" viewBox="0 0 20.104 20.104"><defs><style>.a{fill:#ffba00;}</style></defs><path class="a" d="M8.505,0H.773A.773.773,0,0,0,0,.773V8.505a.773.773,0,0,0,.773.773H8.505a.773.773,0,0,0,.773-.773V.773A.773.773,0,0,0,8.505,0Z"/><path class="a" d="M154.79,0h-7.732a.773.773,0,0,0-.773.773V8.505a.773.773,0,0,0,.773.773h7.732a.773.773,0,0,0,.773-.773V.773A.773.773,0,0,0,154.79,0Z" transform="translate(-135.46)"/><path class="a" d="M8.505,146.286H.773a.773.773,0,0,0-.773.773v7.732a.773.773,0,0,0,.773.773H8.505a.773.773,0,0,0,.773-.773v-7.732A.773.773,0,0,0,8.505,146.286Z" transform="translate(0 -135.461)"/><path class="a" d="M154.79,146.286h-7.732a.773.773,0,0,0-.773.773v7.732a.773.773,0,0,0,.773.773h7.732a.773.773,0,0,0,.773-.773v-7.732A.773.773,0,0,0,154.79,146.286Z" transform="translate(-135.46 -135.461)"/></svg>