<svg xmlns="http://www.w3.org/2000/svg" width="30" height="30.012" viewBox="0 0 30 30.012"><defs><style>.a{fill:#fff;}</style></defs><g transform="translate(-0.104)"><path class="a" d="M2.415,121a.756.756,0,0,0-.756.756v1.294a3.456,3.456,0,0,0-1.547,2.2,2.685,2.685,0,0,0,.552,1.8H4.115a2.724,2.724,0,0,0,.546-1.8,3.346,3.346,0,0,0-1.49-2.2v-1.295A.756.756,0,0,0,2.415,121Z" transform="translate(0 -113.603)"/><path class="a" d="M228.972,451.756a.757.757,0,0,0-.756-.756H226.7a.757.757,0,0,0-.756.756v2.319h3.025Z" transform="translate(-212.359 -424.063)"/><path class="a" d="M125.269,361H105.947v7.613h1.932v-3.832a1,1,0,0,1,1.932,0v3.832h1.932v-2.319c0-1.251,1.3-2.269,2.9-2.269h1.932c1.6,0,2.9,1.018,2.9,2.269v2.319H121.4v-3.832a1,1,0,0,1,1.932,0v3.832h1.932Z" transform="translate(-100.507 -338.6)"/><path class="a" d="M15.7,283.15h2.319V271H14.947v11.394A.756.756,0,0,0,15.7,283.15Z" transform="translate(-14.095 -253.138)"/><path class="a" d="M425.767,125.253a3.468,3.468,0,0,0-1.553-2.2v-1.294a.756.756,0,1,0-1.512,0v1.294a3.348,3.348,0,0,0-1.492,2.2,2.682,2.682,0,0,0,.547,1.8h3.452A2.729,2.729,0,0,0,425.767,125.253Z" transform="translate(-395.67 -113.603)"/><path class="a" d="M439.022,282.394V271h-3.075v12.15h2.269A.8.8,0,0,0,439.022,282.394Z" transform="translate(-409.672 -253.138)"/><path class="a" d="M150.947,10.259a3.472,3.472,0,0,0,.571,1.891h9.444a3.472,3.472,0,0,0,.571-1.891c0-2.141-3.27-4.547-4.537-5.379V4.393a2.247,2.247,0,0,0,1.273-1.11.756.756,0,1,0-1.353-.676.756.756,0,1,1-.676-1.094.756.756,0,0,0,0-1.512,2.263,2.263,0,0,0-.756,4.4v.483C154.217,5.713,150.947,8.119,150.947,10.259Z" transform="translate(-141.14)"/><path class="a" d="M150.947,274.025h10.587v-.756a.756.756,0,0,0-.756-.756h-.756V271h-7.562v1.512H151.7a.756.756,0,0,0-.756.756Z" transform="translate(-141.14 -254.82)"/></g></svg>