<svg xmlns="http://www.w3.org/2000/svg" width="30" height="28.091" viewBox="0 0 30 28.091"><defs><style>.a{fill:#fff;}</style></defs><g transform="translate(0 -16.286)"><path class="a" d="M24.179,41.651V17.165a.915.915,0,0,0-.947-.879H.947A.915.915,0,0,0,0,17.165V39.894a4.579,4.579,0,0,0,4.735,4.393H25.128A4.169,4.169,0,0,1,24.179,41.651ZM5.05,33.157h3.03a.881.881,0,1,1,0,1.757H5.05a.881.881,0,1,1,0-1.757ZM4.1,30.287a.915.915,0,0,1,.947-.879h3.03a.881.881,0,1,1,0,1.757H5.05A.915.915,0,0,1,4.1,30.287Zm15.088,9.783H5.05a.881.881,0,1,1,0-1.757H19.191a.881.881,0,1,1,0,1.757Zm.947-4.628a.915.915,0,0,1-.947.879h-7.07a.915.915,0,0,1-.947-.879V28.881A.915.915,0,0,1,12.121,28h7.07a.915.915,0,0,1,.947.879Zm-.947-9.431H5.05a.881.881,0,1,1,0-1.757H19.191a.881.881,0,1,1,0,1.757Zm0-3.749H5.05a.881.881,0,1,1,0-1.757H19.191a.881.881,0,1,1,0,1.757Z"/><path class="a" d="M207,246.286h5.177v5.177H207Z" transform="translate(-195.05 -216.739)"/><path class="a" d="M418.295,120.286h-5.3c0,21.457,0,20.77.006,20.77a3.125,3.125,0,0,0,6.241-.07s0,.473,0-19.753a.947.947,0,0,0-.947-.947Z" transform="translate(-389.242 -99.609)"/></g></svg>