<svg xmlns="http://www.w3.org/2000/svg" width="20.686" height="28.371" viewBox="0 0 20.686 28.371"><defs><style>.a{fill:#fff;}</style></defs><g transform="translate(-69.343)"><path class="a" d="M75.864,351h4.474v1.672H73.054a3.711,3.711,0,0,0-3.711,3.711H80.3a4.553,4.553,0,1,0,.058-9.106l-7.866-.022A3.393,3.393,0,0,0,75.864,351Z" transform="translate(0 -328.013)"/><path class="a" d="M208.194,6.791a3.4,3.4,0,1,0-3.4-3.4A3.4,3.4,0,0,0,208.194,6.791Z" transform="translate(-127.949)"/><path class="a" d="M150.77,149.69l-1.339-1-1.362,1.82-2.918,1.35-4.12-2.739a3.563,3.563,0,0,0-1.863-.607l-.113,0a3.691,3.691,0,0,0-3.539,2.677l-1.869,6.673h6.246l.622-1.8L138.9,155.2l.779-1.469,6.679,3.541s3.282-2.507,3.049-5.755Z" transform="translate(-60.741 -140.281)"/></g></svg>