<svg xmlns="http://www.w3.org/2000/svg" width="30" height="27.039" viewBox="0 0 30 27.039"><defs><style>.a{fill:#fff;}</style></defs><g transform="translate(0 -21.136)"><g transform="translate(0 21.136)"><path class="a" d="M25.983,40.071H24.118V25.152A4.01,4.01,0,0,0,20.1,21.136H3.821a.455.455,0,0,0-.215.036,4.039,4.039,0,0,0,0,8.033c.072,0,.143.036.215.036h.215V44.195a4.049,4.049,0,0,0,4.016,3.981H25.983a4.052,4.052,0,0,0,0-8.1ZM4.036,27.053v-.036a1.865,1.865,0,1,1,0-3.73H16.551a4.1,4.1,0,0,0,0,3.765ZM21.249,41.72H6.546V39.569h14.7Zm0-4.3H6.546V35.265h14.7Zm0-4.3H6.546V30.962h14.7Zm4.77,12.838a1.852,1.852,0,0,1-1.865-1.865V42.222h1.865a1.865,1.865,0,0,1,0,3.73Z" transform="translate(0 -21.136)"/></g></g></svg>