<svg xmlns="http://www.w3.org/2000/svg" width="22.755" height="20" viewBox="0 0 22.755 20"><defs><style>.a{fill:#ffa700;}</style></defs><g transform="translate(0 -31)"><circle class="a" cx="2" cy="2" r="2" transform="translate(0.378 39)"/><path class="a" d="M0,331H22.755v2.667H0Z" transform="translate(0 -286.667)"/><path class="a" d="M105.422,211H93.333A3.337,3.337,0,0,0,90,214.333V215h18.755v-.667A3.337,3.337,0,0,0,105.422,211Z" transform="translate(-86 -172)"/><path class="a" d="M0,423.667H1.333v-1.333H21.422v1.333h1.333V421H0Z" transform="translate(0 -372.667)"/><path class="a" d="M241.255,35H245V33.667h-1.588L244.745,31H241v1.333h1.588Z" transform="translate(-230.289)"/><path class="a" d="M121.255,95H125V93.667h-1.588L124.745,91H121v1.333h1.588Z" transform="translate(-115.622 -57.333)"/></g></svg>