<svg xmlns="http://www.w3.org/2000/svg" width="119.141" height="119.141" viewBox="0 0 119.141 119.141"><defs><style>.a{fill:#fff;}</style></defs><g transform="translate(26.079 26.079)"><path class="a" d="M145.563,112.071A33.519,33.519,0,0,0,112.769,152.4a2.326,2.326,0,1,0,4.555-.945A28.844,28.844,0,1,1,145.563,174.4a28.776,28.776,0,0,1-22.2-10.427,2.326,2.326,0,1,0-3.578,2.972,33.492,33.492,0,1,0,25.776-54.877Z" transform="translate(-112.071 -112.071)"/></g><g transform="translate(57.245)"><path class="a" d="M248.331,0a2.326,2.326,0,0,0-2.326,2.326V17.482a2.326,2.326,0,0,0,4.652,0V2.326A2.326,2.326,0,0,0,248.331,0Z" transform="translate(-246.005)"/></g><g transform="translate(57.245 99.332)"><path class="a" d="M248.331,426.875a2.326,2.326,0,0,0-2.326,2.326v15.157a2.326,2.326,0,0,0,4.652,0V429.2A2.326,2.326,0,0,0,248.331,426.875Z" transform="translate(-246.005 -426.875)"/></g><g transform="translate(99.332 57.245)"><path class="a" d="M444.357,246.005H429.2a2.326,2.326,0,0,0,0,4.652h15.157a2.326,2.326,0,1,0,0-4.652Z" transform="translate(-426.875 -246.005)"/></g><g transform="translate(0 57.245)"><path class="a" d="M17.482,246.005H2.326a2.326,2.326,0,0,0,0,4.652H17.482a2.326,2.326,0,0,0,0-4.652Z" transform="translate(0 -246.005)"/></g><g transform="translate(87.005 16.767)"><path class="a" d="M388.588,72.734a2.327,2.327,0,0,0-3.289,0L374.581,83.452a2.326,2.326,0,1,0,3.289,3.289l10.717-10.717A2.326,2.326,0,0,0,388.588,72.734Z" transform="translate(-373.9 -72.054)"/></g><g transform="translate(16.767 87.005)"><path class="a" d="M86.742,374.58a2.327,2.327,0,0,0-3.289,0L72.735,385.3a2.326,2.326,0,1,0,3.289,3.289L86.742,377.87A2.326,2.326,0,0,0,86.742,374.58Z" transform="translate(-72.054 -373.899)"/></g><g transform="translate(87.005 87.005)"><path class="a" d="M388.588,385.3,377.87,374.58a2.326,2.326,0,0,0-3.289,3.289L385.3,388.587a2.326,2.326,0,1,0,3.289-3.289Z" transform="translate(-373.9 -373.899)"/></g><g transform="translate(16.767 16.767)"><path class="a" d="M86.742,83.452,76.024,72.734a2.326,2.326,0,0,0-3.289,3.289L83.452,86.741a2.326,2.326,0,0,0,3.289-3.289Z" transform="translate(-72.054 -72.054)"/></g><g transform="translate(29.33 71.114)"><path class="a" d="M130.014,306.29a2.324,2.324,0,1,0,.682,1.644A2.344,2.344,0,0,0,130.014,306.29Z" transform="translate(-126.044 -305.608)"/></g><g transform="translate(72.353 43.508)"><path class="a" d="M320.841,201.454a22.8,22.8,0,0,0-5.862-13.721,2.326,2.326,0,0,0-3.441,3.13,18.13,18.13,0,0,1,4.662,10.909,2.326,2.326,0,0,0,2.318,2.166c.053,0,.108,0,.162-.005A2.326,2.326,0,0,0,320.841,201.454Z" transform="translate(-310.932 -186.973)"/></g><g transform="translate(77.663 64.658)"><path class="a" d="M337.721,278.544a2.325,2.325,0,1,0,.682,1.644A2.339,2.339,0,0,0,337.721,278.544Z" transform="translate(-333.751 -277.862)"/></g></svg>