<svg xmlns="http://www.w3.org/2000/svg" width="34.531" height="26.614" viewBox="0 0 34.531 26.614"><defs><style>.a{fill:#fff;}</style></defs><g transform="translate(0 -58.693)"><path class="a" d="M242.012,65.322a1.012,1.012,0,0,0,1.012-1.012V59.7a1.012,1.012,0,0,0-2.023,0v4.606A1.012,1.012,0,0,0,242.012,65.322Z" transform="translate(-224.746)"/><path class="a" d="M419.324,299.693h-4.606a1.012,1.012,0,1,0,0,2.023h4.606a1.012,1.012,0,0,0,0-2.023Z" transform="translate(-385.804 -224.746)"/><path class="a" d="M6.629,300.7a1.012,1.012,0,0,0-1.012-1.012H1.012a1.012,1.012,0,1,0,0,2.023H5.618A1.012,1.012,0,0,0,6.629,300.7Z" transform="translate(0 -224.746)"/><path class="a" d="M381.935,128.259a1.008,1.008,0,0,0,.715-.3l2.485-2.485a1.012,1.012,0,0,0-1.431-1.431l-2.486,2.485a1.012,1.012,0,0,0,.715,1.727Z" transform="translate(-355.233 -60.67)"/><path class="a" d="M67,127.963a1.012,1.012,0,1,0,1.431-1.431l-2.485-2.485a1.012,1.012,0,0,0-1.431,1.431Z" transform="translate(-59.89 -60.67)"/><path class="a" d="M81.85,197.3H77.42a8.734,8.734,0,1,0-16.112,0h-4.43a1.012,1.012,0,0,0,0,2.023H81.85a1.012,1.012,0,0,0,0-2.023Z" transform="translate(-52.098 -117.968)"/><path class="a" d="M160.492,423.307h-12.71a1.012,1.012,0,1,0,0,2.023h12.71a1.012,1.012,0,1,0,0-2.023Z" transform="translate(-136.871 -340.023)"/></g></svg>