<svg xmlns="http://www.w3.org/2000/svg" width="33.642" height="29.568" viewBox="0 0 33.642 29.568"><defs><style>.a{fill:#fff;}</style></defs><g transform="translate(-0.002 -31.003)"><g transform="translate(0.002 56.628)"><g transform="translate(0)"><path class="a" d="M33.477,422.489A3.464,3.464,0,0,0,30.621,421a3.348,3.348,0,0,0-2.791,1.494,1.421,1.421,0,0,1-2.3,0,3.355,3.355,0,0,0-5.582,0,1.421,1.421,0,0,1-2.3,0,3.355,3.355,0,0,0-5.582,0,1.421,1.421,0,0,1-2.3,0,3.355,3.355,0,0,0-5.582,0,1.487,1.487,0,0,1-2.368,0,.986.986,0,0,0-1.64,1.093,3.343,3.343,0,0,0,2.857,1.355,3.225,3.225,0,0,0,2.791-1.355,1.421,1.421,0,0,1,2.3,0,3.226,3.226,0,0,0,2.791,1.355,3.226,3.226,0,0,0,2.791-1.355,1.421,1.421,0,0,1,2.3,0,3.225,3.225,0,0,0,2.791,1.355,3.225,3.225,0,0,0,2.791-1.355,1.421,1.421,0,0,1,2.3,0,3.225,3.225,0,0,0,2.791,1.355,3.225,3.225,0,0,0,2.791-1.355,1.487,1.487,0,0,1,2.368,0,.986.986,0,0,0,1.64-1.093Z" transform="translate(-0.002 -420.995)"/></g></g><g transform="translate(0.002 46.772)"><g transform="translate(0 0)"><path class="a" d="M5,271H.991a.986.986,0,0,0,0,1.971H5A.986.986,0,0,0,5,271Z" transform="translate(-0.005 -270.998)"/></g></g><g transform="translate(27.664 46.772)"><g transform="translate(0 0)"><path class="a" d="M425.99,271h-4.008a.986.986,0,1,0,0,1.971h4.008a.986.986,0,0,0,0-1.971Z" transform="translate(-420.996 -270.998)"/></g></g><g transform="translate(24.2 35.622)"><g transform="translate(0 0)"><path class="a" d="M372.749,101.587a.985.985,0,0,0-1.394,0l-2.787,2.787a.986.986,0,0,0,1.394,1.394l2.787-2.787A.985.985,0,0,0,372.749,101.587Z" transform="translate(-368.279 -101.299)"/></g></g><g transform="translate(15.837 31.003)"><g transform="translate(0 0)"><path class="a" d="M241.986,31a.985.985,0,0,0-.986.986v3.942a.986.986,0,0,0,1.971,0V31.989A.985.985,0,0,0,241.986,31Z" transform="translate(-241 -31.003)"/></g></g><g transform="translate(4.687 35.622)"><g transform="translate(0 0)"><path class="a" d="M75.771,104.375l-2.787-2.787a.986.986,0,0,0-1.394,1.394l2.787,2.787a.985.985,0,1,0,1.394-1.394Z" transform="translate(-71.301 -101.299)"/></g></g><g transform="translate(0.002 50.715)"><g transform="translate(0 0)"><path class="a" d="M33.478,332.49A3.464,3.464,0,0,0,30.621,331a3.348,3.348,0,0,0-2.791,1.494,1.421,1.421,0,0,1-2.3,0,3.355,3.355,0,0,0-5.582,0,1.421,1.421,0,0,1-2.3,0,3.355,3.355,0,0,0-5.582,0,1.421,1.421,0,0,1-2.3,0,3.355,3.355,0,0,0-5.582,0,1.487,1.487,0,0,1-2.368,0,.986.986,0,0,0-1.64,1.094,3.343,3.343,0,0,0,2.857,1.355,3.226,3.226,0,0,0,2.791-1.355,1.421,1.421,0,0,1,2.3,0,3.226,3.226,0,0,0,2.791,1.355,3.226,3.226,0,0,0,2.791-1.355,1.421,1.421,0,0,1,2.3,0,3.226,3.226,0,0,0,2.791,1.355,3.226,3.226,0,0,0,2.791-1.355,1.421,1.421,0,0,1,2.3,0,3.226,3.226,0,0,0,2.791,1.355,3.226,3.226,0,0,0,2.791-1.355,1.486,1.486,0,0,1,2.368,0,.986.986,0,0,0,1.64-1.094Z" transform="translate(-0.002 -330.996)"/></g></g><g transform="translate(7.952 38.888)"><path class="a" d="M129.873,151a8.88,8.88,0,0,0-8.87,8.87,8.706,8.706,0,0,0,.118,1.1,5.308,5.308,0,0,1,2.839,1.628,5.328,5.328,0,0,1,7.885,0,5.261,5.261,0,0,1,6.7-.946A8.781,8.781,0,0,0,129.873,151Z" transform="translate(-121.003 -151)"/></g></g></svg>