<svg xmlns="http://www.w3.org/2000/svg" width="45.968" height="20.003" viewBox="0 0 45.968 20.003"><defs><style>.a{fill:#8b8892;}.b{fill:#aeadb3;}.c{fill:#f2f2f2;}.d{fill:#d9d9d9;}</style></defs><g transform="translate(0 -0.001)"><path class="a" d="M123.712,0H97.748a1.347,1.347,0,1,0,0,2.693V17.311a1.347,1.347,0,1,0,0,2.693h25.965a10,10,0,1,0,0-20Z" transform="translate(-87.746 0)"/><path class="b" d="M123.712,0H97.748a1.347,1.347,0,1,0,0,2.693V10h35.966A10.013,10.013,0,0,0,123.712,0Z" transform="translate(-87.746 0)"/><g transform="translate(0 0.001)"><path class="c" d="M20,10A10,10,0,1,0,10,20,10.013,10.013,0,0,0,20,10Z" transform="translate(0 -0.001)"/></g><g transform="translate(0 10.003)"><path class="d" d="M20,111.4H0a10,10,0,1,0,20,0Z" transform="translate(0 -111.4)"/></g></g></svg>