<svg xmlns="http://www.w3.org/2000/svg" width="45.968" height="20.003" viewBox="0 0 45.968 20.003"><defs><style>.a{fill:#13c37b;}.b{fill:#61de56;}.c{fill:#f2f2f2;}.d{fill:#d9d9d9;}</style></defs><g transform="translate(0 -25.966)"><path class="a" d="M35.967,306.51V291.893a1.347,1.347,0,1,0,0-2.693H10a10,10,0,0,0,0,20H35.967a1.347,1.347,0,0,0,0-2.693Z" transform="translate(-0.001 -263.234)"/><path class="b" d="M10,289.2H35.967a1.347,1.347,0,1,1,0,2.693V299.2H0A10.013,10.013,0,0,1,10,289.2Z" transform="translate(-0.001 -263.235)"/><g transform="translate(0 0.001)"><path class="c" d="M309.205,299.2a10,10,0,1,0-10,10A10.013,10.013,0,0,0,309.205,299.2Z" transform="translate(-263.237 -263.235)"/></g><g transform="translate(0 10.003)"><path class="d" d="M309.2,400.6h-20a10,10,0,0,0,20,0Z" transform="translate(-263.236 -374.637)"/></g></g></svg>