<svg xmlns="http://www.w3.org/2000/svg" width="26.969" height="26.969" viewBox="0 0 26.969 26.969"><path d="M13.237,24.474A11.237,11.237,0,1,1,24.474,13.237,11.25,11.25,0,0,1,13.237,24.474Zm0-20.788a9.551,9.551,0,1,0,9.551,9.551A9.562,9.562,0,0,0,13.237,3.686Z" transform="translate(0.247 0.247)"/><path d="M12.093,5.618a.843.843,0,0,1-.843-.843V.843a.843.843,0,0,1,1.686,0V4.776A.843.843,0,0,1,12.093,5.618Z" transform="translate(1.392)"/><path d="M23.776,12.936H19.843a.843.843,0,0,1,0-1.686h3.933a.843.843,0,0,1,0,1.686Z" transform="translate(2.35 1.392)"/><path d="M12.093,24.618a.843.843,0,0,1-.843-.843V19.843a.843.843,0,0,1,1.686,0v3.933A.843.843,0,0,1,12.093,24.618Z" transform="translate(1.392 2.35)"/><path d="M4.776,12.936H.843a.843.843,0,0,1,0-1.686H4.776a.843.843,0,0,1,0,1.686Z" transform="translate(0 1.392)"/><path d="M12.371,15.742a3.371,3.371,0,1,1,3.371-3.371A3.375,3.375,0,0,1,12.371,15.742Zm0-5.057a1.686,1.686,0,1,0,1.686,1.686A1.688,1.688,0,0,0,12.371,10.686Z" transform="translate(1.113 1.113)"/></svg>