<svg xmlns="http://www.w3.org/2000/svg" width="30" height="27.501" viewBox="0 0 30 27.501"><defs><style>.a{fill:#fff;}</style></defs><g transform="translate(0 -21.326)"><g transform="translate(0.037 33.059)"><path class="a" d="M.78,220.772v.479l.348-.479Z" transform="translate(-0.78 -220.772)"/></g><g transform="translate(0 21.326)"><g transform="translate(0 0)"><path class="a" d="M30,29.882H27.266L23.519,24.76H20.5V21.326H9.479V24.76H6.462L2.743,29.882H0v1.757H1.468L.046,33.6l0,15.222h6.97V45.311h16v3.516h6.97V33.6l-1.432-1.957H30ZM7.358,26.516h15.27l4.752,6.5H2.642ZM1.8,38.28V34.769H7.731L9.744,38.28Zm17.823,3.528H10.358V40.052h9.268Zm8.6-3.528H20.321l2.013-3.511h5.892Z" transform="translate(0 -21.326)"/></g></g></g></svg>