<svg xmlns="http://www.w3.org/2000/svg" width="21.268" height="20.017" viewBox="0 0 21.268 20.017"><defs><style>.a{fill:#1ebe37;}</style></defs><g transform="translate(0 -15.062)"><path class="a" d="M157.021,15.062H152.5a2.131,2.131,0,0,0-2.129,2.129v.379h1.246v-.379a.884.884,0,0,1,.883-.883h4.517a.884.884,0,0,1,.883.883v.379h1.246v-.379A2.131,2.131,0,0,0,157.021,15.062Z" transform="translate(-144.129)"/><path class="a" d="M184.384,227.692v-1.88h-1.257v1.88a.623.623,0,0,1-.623.623h-1.88v1.257h1.88a.623.623,0,0,1,.623.623v1.88h1.257v-1.88a.623.623,0,0,1,.623-.623h1.88v-1.257h-1.88A.623.623,0,0,1,184.384,227.692Z" transform="translate(-173.122 -201.996)"/><path class="a" d="M0,110.032v9.928a3.172,3.172,0,0,0,2.544,3.105V106.927A3.172,3.172,0,0,0,0,110.032Z" transform="translate(0 -88.049)"/><path class="a" d="M450.751,106.927v16.139a3.172,3.172,0,0,0,2.544-3.105v-9.928A3.172,3.172,0,0,0,450.751,106.927Z" transform="translate(-432.027 -88.049)"/><path class="a" d="M104.936,105.438H91.249V121.7h13.687Zm-2.466,9.383a.623.623,0,0,1-.623.623h-1.88v1.88a.623.623,0,0,1-.623.623h-2.5a.623.623,0,0,1-.623-.623v-1.88h-1.88a.623.623,0,0,1-.623-.623v-2.5a.623.623,0,0,1,.623-.623h1.88v-1.88a.623.623,0,0,1,.623-.623h2.5a.623.623,0,0,1,.623.623v1.88h1.88a.623.623,0,0,1,.623.623Z" transform="translate(-87.459 -86.622)"/></g></svg>